<svg width="201" height="35" viewBox="0 0 201 35" fill="none" xmlns="http://www.w3.org/2000/svg">
<g clip-path="url(#clip0_111_4096)">
<path d="M100.079 6.92285C91.7324 6.92285 86.5303 12.7304 86.5303 20.8841C86.5303 29.4611 92.043 35.0003 100.079 35.0003C108.115 35.0003 113.706 29.1152 113.706 20.8841C113.706 12.6529 108.154 6.92285 100.079 6.92285ZM100.079 30.8078C94.6832 30.8078 91.2664 26.9611 91.2664 20.8841C91.2664 14.807 94.6832 11.0761 100.079 11.0761C105.475 11.0761 108.969 14.8833 108.969 20.8841C108.969 26.8848 105.514 30.8078 100.079 30.8078Z" fill="#122315"/>
<path d="M156.1 19.3846L151.985 18.1155C149.344 17.2698 146.977 16.6925 146.977 14.3464C146.977 12.2698 148.917 11.0388 151.907 11.0388C155.983 11.0388 158.234 13.0773 158.428 16.1164H163.164C162.814 10.4245 158.621 6.92383 152.062 6.92383C146.045 6.92383 142.356 10.155 142.356 14.5777C142.356 19.8473 147.325 21.2321 150.508 22.1935L154.934 23.5007C157.574 24.3082 159.243 25.1551 159.243 27.2698C159.243 29.5396 157.379 30.8851 153.847 30.8851C149.499 30.8851 146.781 29.0386 146.354 26.1153H141.579C141.929 31.4612 146.704 35.0001 153.847 35.0001C160.058 35.0001 163.979 31.9228 163.979 27.0385C163.979 22.1541 159.942 20.5773 156.1 19.3846Z" fill="#122315"/>
<path d="M14.4012 28.4965C14.3775 28.5571 14.3162 28.6009 14.2459 28.6009C14.1756 28.6009 14.1156 28.556 14.0918 28.4942L5.74507 7.49902H0V34.4219H4.65908V16.3546C4.66248 16.267 4.73504 16.1963 4.82458 16.1963C4.89487 16.1963 4.95609 16.2401 4.97876 16.3018L12.1907 34.4219H16.2671L23.4791 16.2985C23.5029 16.2378 23.5629 16.194 23.6332 16.194C23.724 16.194 23.7975 16.267 23.7988 16.3569V34.4219H28.4578V7.49902H22.7117L14.4012 28.4965Z" fill="#122315"/>
<path d="M41.9276 7.5L30.8252 34.4239H35.6396L38.3964 27.7696H50.1598L52.9167 34.4239H57.7311L46.5868 7.5H41.9276ZM40.064 23.6928L44.1438 13.8275C44.1699 13.7714 44.2289 13.7309 44.2957 13.7309C44.3626 13.7309 44.4238 13.7736 44.4487 13.8331L48.4888 23.6917H40.0651L40.064 23.6928Z" fill="#122315"/>
<path d="M78.615 27.2215C78.615 27.3114 78.5379 27.3878 78.4473 27.3878C78.3894 27.3878 78.3407 27.3574 78.3112 27.3125L65.1445 7.5H60.0977V34.4228H64.7567V14.7092C64.7567 14.6193 64.8316 14.5373 64.9223 14.5373C64.9789 14.5373 65.03 14.5665 65.0594 14.6092L78.2272 34.4228H83.274V7.5H78.615V27.2215Z" fill="#122315"/>
<path d="M133.546 22.2228C133.479 22.2015 133.426 22.1363 133.426 22.0622C133.426 21.9881 133.474 21.9319 133.539 21.9094C136.822 20.8527 138.941 18.2425 138.941 15.1147C138.941 10.6145 135.368 7.49902 130.207 7.49902H116.93V34.423H121.589V24.269H129.548C130.79 24.269 131.683 24.8464 132.071 25.9234L135.216 34.423H140.185L136.691 25.154C136.105 23.6862 135.031 22.6742 133.548 22.2228H133.546ZM129.973 20.1922H121.588V11.6534H129.973C132.613 11.6534 134.322 13.3459 134.322 15.8077C134.322 18.2695 132.847 20.1922 129.973 20.1922Z" fill="#122315"/>
<path d="M197.062 20.9613C198.367 20.9613 199.424 19.9134 199.424 18.6218C199.424 17.3303 198.367 16.2824 197.062 16.2824C195.758 16.2824 194.701 15.2346 194.701 13.943C194.701 12.6515 193.644 11.6036 192.34 11.6036C191.037 11.6036 189.978 10.5558 189.978 9.26421C189.978 7.97265 188.921 6.9248 187.617 6.9248C186.314 6.9248 185.257 7.97265 185.257 9.26421C185.257 10.5558 184.198 11.6036 182.895 11.6036C181.591 11.6036 180.534 10.5558 180.534 9.26421C180.534 7.97265 179.476 6.9248 178.172 6.9248C176.868 6.9248 175.811 7.97265 175.811 9.26421C175.811 10.5558 174.753 11.6036 173.45 11.6036C172.146 11.6036 171.088 12.6515 171.088 13.943C171.088 15.2346 172.146 16.2824 173.45 16.2824C174.753 16.2824 175.811 17.3303 175.811 18.6218C175.811 19.9134 174.753 20.9613 173.45 20.9613C172.146 20.9613 171.088 22.0091 171.088 23.3007C171.088 24.5922 172.146 25.64 173.45 25.64C174.753 25.64 175.811 26.6879 175.811 27.9795C175.811 29.271 174.753 30.3189 173.45 30.3189C172.146 30.3189 171.088 31.3668 171.088 32.6583C171.088 33.9499 172.146 34.9977 173.45 34.9977C174.753 34.9977 175.811 33.9499 175.811 32.6583C175.811 31.3668 176.868 30.3189 178.172 30.3189C179.476 30.3189 180.534 29.271 180.534 27.9795C180.534 26.6879 179.476 25.64 178.172 25.64C176.868 25.64 175.811 24.5922 175.811 23.3007C175.811 22.0091 176.868 20.9613 178.172 20.9613C179.476 20.9613 180.534 19.9134 180.534 18.6218C180.534 17.3303 179.476 16.2824 178.172 16.2824C176.868 16.2824 175.811 15.2346 175.811 13.943C175.811 12.6515 176.868 11.6036 178.172 11.6036C179.476 11.6036 180.534 12.6515 180.534 13.943C180.534 15.2346 181.591 16.2824 182.895 16.2824C184.198 16.2824 185.257 17.3303 185.257 18.6218C185.257 19.9134 184.198 20.9613 182.895 20.9613C181.591 20.9613 180.534 22.0091 180.534 23.3007C180.534 24.5922 181.591 25.64 182.895 25.64C184.198 25.64 185.257 26.6879 185.257 27.9795C185.257 29.271 184.198 30.3189 182.895 30.3189C181.591 30.3189 180.534 31.3668 180.534 32.6583C180.534 33.9499 181.591 34.9977 182.895 34.9977C184.198 34.9977 185.257 33.9499 185.257 32.6583C185.257 31.3668 186.314 30.3189 187.617 30.3189C188.921 30.3189 189.978 29.271 189.978 27.9795C189.978 26.6879 188.921 25.64 187.617 25.64C186.314 25.64 185.257 24.5922 185.257 23.3007C185.257 22.0091 186.314 20.9613 187.617 20.9613C188.921 20.9613 189.978 19.9134 189.978 18.6218C189.978 17.3303 188.921 16.2824 187.617 16.2824C186.314 16.2824 185.257 15.2346 185.257 13.943C185.257 12.6515 186.314 11.6036 187.617 11.6036C188.921 11.6036 189.978 12.6515 189.978 13.943C189.978 15.2346 191.037 16.2824 192.34 16.2824C193.644 16.2824 194.701 17.3303 194.701 18.6218C194.701 19.9134 193.644 20.9613 192.34 20.9613C191.037 20.9613 189.978 22.0091 189.978 23.3007C189.978 24.5922 191.037 25.64 192.34 25.64C193.644 25.64 194.701 26.6879 194.701 27.9795C194.701 29.271 193.644 30.3189 192.34 30.3189C191.037 30.3189 189.978 31.3668 189.978 32.6583C189.978 33.9499 191.037 34.9977 192.34 34.9977C193.644 34.9977 194.701 33.9499 194.701 32.6583C194.701 31.3668 195.758 30.3189 197.062 30.3189C198.367 30.3189 199.424 29.271 199.424 27.9795C199.424 26.6879 198.367 25.64 197.062 25.64C195.758 25.64 194.701 24.5922 194.701 23.3007C194.701 22.0091 195.758 20.9613 197.062 20.9613Z" fill="#122315"/>
<path d="M198.3 11.2447C199.409 10.5654 199.753 9.12381 199.067 8.02479C198.381 6.92576 196.925 6.5855 195.817 7.2648C194.707 7.94411 194.364 9.38573 195.049 10.4848C195.735 11.5838 197.19 11.924 198.3 11.2447Z" fill="#122315"/>
</g>
<defs>
<clipPath id="clip0_111_4096">
<rect width="201" height="35" fill="white"/>
</clipPath>
</defs>
</svg>
