<svg width="278" height="37" viewBox="0 0 278 37" fill="none" xmlns="http://www.w3.org/2000/svg">
<g clip-path="url(#clip0_111_4105)">
<path d="M143.005 26.1945C143.005 30.0563 143.994 32.8082 145.997 34.4732C147.976 36.1382 150.544 36.9938 153.701 36.9938C156.858 36.9938 159.426 36.1613 161.405 34.4732C163.384 32.8082 164.397 30.0332 164.397 26.1945V10.377H160.839V26.1945C160.839 28.5763 160.25 30.4495 159.072 31.7907C157.894 33.132 156.104 33.8026 153.701 33.8026C151.298 33.8026 149.507 33.132 148.329 31.7907C147.151 30.4495 146.562 28.5763 146.562 26.1945V10.377H143.005V26.1945Z" fill="#122315"/>
<path d="M176.271 36.6309H194.553V33.6016H179.828V24.8372H191.301V21.8078H179.828V13.5059H194.246V10.4766H176.271V36.6309Z" fill="#122315"/>
<path d="M109.503 36.4415H113.084L112.919 16.369H113.084L127.785 36.4415H131.201V10.2871H127.644L127.785 30.5215H127.644L112.919 10.2871H109.503V36.4415Z" fill="#122315"/>
<path d="M216.698 23.4711C216.698 27.4255 217.876 30.663 220.256 33.2068C222.635 35.7505 225.674 36.9993 229.397 36.9993C232.507 36.9993 235.051 36.1899 237.053 34.5943C239.056 32.9755 240.328 30.8943 240.87 28.3505H237.195C236.7 30.108 235.828 31.4493 234.58 32.3974C233.331 33.3455 231.611 33.8311 229.42 33.8311C226.782 33.8311 224.638 32.8368 222.941 30.8711C221.269 28.8824 220.421 26.4311 220.421 23.4943C220.421 20.5574 221.269 17.9905 222.965 16.0711C224.661 14.1286 226.852 13.1574 229.562 13.1574C231.611 13.1574 233.26 13.643 234.533 14.5911C235.805 15.5393 236.7 16.8805 237.195 18.638H240.87C240.328 16.0711 239.08 13.9899 237.124 12.3943C235.169 10.7755 232.648 9.98926 229.562 9.98926C225.769 9.98926 222.682 11.2843 220.279 13.8511C217.9 16.418 216.698 19.6555 216.698 23.5174" fill="#122315"/>
<path d="M253.922 13.5262C253.922 10.5893 254.77 8.13805 256.49 6.1493C258.209 4.16055 260.448 3.1893 263.228 3.1893C266.008 3.1893 268.269 4.18367 269.965 6.1493C271.662 8.11492 272.533 10.5893 272.533 13.5262C272.533 16.463 271.685 18.9143 269.965 20.903C268.246 22.8918 266.008 23.863 263.228 23.863C260.448 23.863 258.186 22.8687 256.49 20.903C254.793 18.9374 253.922 16.463 253.922 13.5262ZM250.199 13.5262C250.199 17.4112 251.401 20.6255 253.804 23.1924C256.207 25.7593 259.34 27.0543 263.228 27.0543C267.115 27.0543 270.154 25.7593 272.581 23.1924C275.031 20.6255 276.232 17.388 276.232 13.5262C276.232 9.6643 275.007 6.4268 272.581 3.85992C270.13 1.29305 267.021 -0.00195312 263.228 -0.00195312C259.434 -0.00195312 256.207 1.29305 253.804 3.85992C251.401 6.4268 250.199 9.6643 250.199 13.5262Z" fill="#122315"/>
<path d="M274.279 33.9727H252.109V37.002H274.279V33.9727Z" fill="#122315"/>
<path d="M1.7666 10.2871H23.9359V13.2471H14.63V36.4415H11.0725V13.2471H1.7666V10.2871Z" fill="#122315"/>
<path d="M35.5029 10.377H39.0604V21.7776H53.3138V10.377H56.8712V36.5313H53.3138V24.8301H39.0604V36.5313H35.5029V10.377Z" fill="#122315"/>
<path d="M68.7695 36.6309H87.0516V33.6015H72.327V24.8372H83.8004V21.8078H72.327V13.5059H86.7453V10.4766H68.7695V36.6309Z" fill="#122315"/>
</g>
<defs>
<clipPath id="clip0_111_4105">
<rect width="278" height="37" fill="white"/>
</clipPath>
</defs>
</svg>
