<svg width="120" height="52" viewBox="0 0 120 52" fill="none" xmlns="http://www.w3.org/2000/svg">
<g clip-path="url(#clip0_111_4115)">
<path d="M46.187 14.7313C46.247 14.5583 46.237 14.4183 46.154 14.3143C46.001 14.1213 45.696 14.1513 45.343 14.1873C45.108 14.2103 44.759 14.2453 44.668 14.1503C44.614 13.9613 44.456 13.8173 44.2 13.7203C43.629 13.5043 42.6 13.5383 41.588 13.7343C40.81 13.7123 40.018 13.7743 39.764 13.9773C39.589 14.0943 39.402 14.3003 39.181 14.6223C38.781 14.7193 38.346 14.9923 37.861 15.4453C37.778 15.5103 37.733 15.5033 37.511 15.2813C37.413 15.1833 37.311 15.0823 37.188 15.0253L37.044 14.9583L36.962 15.0953L36.197 16.3853C34.035 20.0233 31.585 24.1453 30.101 27.9983C29.43 29.6703 28.426 31.4423 27.456 33.1553C26.95 34.0473 26.43 34.9653 25.956 35.8703C25.604 34.3863 25.236 32.7963 24.884 31.1303C24.546 29.6383 24.354 27.9883 24.17 26.3933C23.944 24.4453 23.71 22.4303 23.206 20.6783C23.112 20.3583 23.108 19.9363 23.104 19.4883C23.098 18.8703 23.092 18.2323 22.844 17.7753C22.698 16.6073 22.527 15.7093 22.304 14.9473C21.778 13.2823 21.127 13.1743 19.327 13.5653C19.281 13.5163 19.23 13.4773 19.174 13.4463C18.893 13.2913 18.562 13.4033 18.27 13.5023L18.138 13.5463C17.965 13.4613 17.792 13.4163 17.633 13.4143C17.457 13.3823 17.282 13.3683 17.111 13.3543C17.002 13.3453 16.891 13.3373 16.779 13.3233L15.722 12.9883L15.65 13.0433C15.537 13.1283 15.457 13.2633 15.41 13.4483L15.402 13.4443L15.369 13.6663C14.975 16.2413 12.009 22.5033 9.62598 27.5343C8.63898 29.6193 7.78598 31.4203 7.28598 32.6063C6.70698 33.9473 6.03898 35.2663 5.39298 36.5413C4.36298 38.5753 3.38998 40.4963 2.78298 42.4463C2.72998 42.6183 2.65698 42.8093 2.55398 43.0513C1.63698 44.8103 0.841982 46.3833 0.406982 47.8303C0.324982 48.1263 0.234982 48.3703 0.162982 48.5673C0.0279817 48.9343 -0.0620183 49.1773 0.0519817 49.3753C0.139982 49.5313 0.322982 49.5853 0.457982 49.6113L1.18298 49.8673L1.22298 49.8633C1.28098 49.8573 1.34098 49.8493 1.40298 49.8383C1.77398 49.8543 2.20998 49.7473 2.66098 49.5253C3.28698 49.3703 3.59698 49.7553 3.73398 50.0263C3.73998 50.5603 4.23098 50.6553 4.59298 50.7243L4.63398 50.7323C4.86898 51.0453 5.29798 51.1473 5.61698 51.2233C5.71998 51.2483 5.85698 51.2813 5.90698 51.3083C5.98498 51.5103 6.10098 51.6223 6.25298 51.6423L6.29798 51.6453C6.50398 51.6453 6.71198 51.4673 6.97298 51.0683C9.93398 45.7203 12.563 40.1943 15 34.9903L16.847 31.0453C16.961 31.6893 17.073 32.3333 17.183 32.9773C17.678 35.9233 18.258 38.8913 18.905 41.7973C19.529 44.5903 20.248 47.5903 21.269 50.6153L21.283 50.6453C21.355 50.7723 21.573 51.1623 21.954 51.0263C21.994 51.0133 22.05 50.9843 22.174 50.9203C22.528 50.7363 23.268 50.3523 23.975 50.2133C24.316 50.1633 24.6 49.9803 24.807 49.6783L24.84 49.7203L24.956 49.4403C25.005 49.3223 25.226 49.1503 25.554 49.0533C25.888 48.9533 26.206 48.9663 26.384 49.0863L26.414 49.1063C26.54 49.2083 26.688 49.2533 26.852 49.2373C27.176 49.2053 27.522 48.9203 27.86 48.4043C31.308 42.2813 33.572 38.0643 36.543 32.4253C40.043 25.7773 43.02 20.2283 46.173 14.7603L46.186 14.7303M86.982 25.2143C87.184 24.6893 87.432 24.1543 87.672 23.6343C87.943 23.0453 88.224 22.4363 88.447 21.8293C88.849 20.7333 89.266 19.5993 89.679 18.6043L89.697 18.5603L89.69 18.5133C89.646 18.1933 89.261 18.0873 88.953 18.0033C88.879 17.9823 88.808 17.9633 88.745 17.9413C88.127 17.4943 84.525 17.4013 83.921 17.4753V17.4733C82.031 17.4863 81.441 17.5643 81.194 18.2083C80.224 18.1383 79.25 18.1493 78.297 18.2403C76.151 18.4373 73.707 19.0333 71.92 19.7963C68.502 21.2693 65.387 23.5593 62.662 26.6033C61.454 27.9613 60.364 29.4533 59.422 31.0403C58.452 32.6823 57.688 34.3553 57.152 36.0133C56.516 37.9973 56.231 39.8263 56.278 41.5973C56.273 41.8133 56.296 42.0363 56.318 42.2513L56.412 43.1083C56.444 43.3013 56.488 43.4963 56.532 43.6853L56.573 43.8723C56.593 43.9523 56.611 44.0303 56.628 44.1083C56.666 44.2783 56.704 44.4563 56.775 44.6343C56.813 44.7353 56.849 44.8373 56.885 44.9383C57.025 45.3303 57.169 45.7363 57.394 46.1203C57.532 46.3813 57.661 46.6153 57.795 46.8473C57.952 47.0683 58.117 47.2933 58.286 47.5153L58.303 47.5353C58.473 47.7013 58.618 47.8103 58.746 47.8653C59.646 48.8143 60.896 49.4433 62.018 49.5113H62.038C63.865 49.4213 65.895 49.1553 67.469 48.8003C69.062 48.4383 70.692 47.9493 72.315 47.3453C73.93 46.7433 75.511 46.0383 77.016 45.2503C78.682 44.3763 80.153 43.4553 81.513 42.4323L81.548 42.3953C81.705 42.1823 81.708 41.9853 81.557 41.7913C81.51 41.7313 81.454 41.6753 81.4 41.6213C81.36 41.5813 81.32 41.5443 81.286 41.5043C81.245 41.3363 81.02 41.2613 80.801 41.1883C80.733 41.1653 80.636 41.1323 80.586 41.1083C80.519 40.4153 80.093 39.5813 79.093 39.4373L79.027 39.4273L78.689 39.6493C78.542 39.4583 78.379 39.1193 78.307 38.9723C78.173 38.7133 77.989 38.4453 77.644 38.3953C77.562 38.3523 77.422 38.2523 77.274 38.1473C76.939 37.9103 76.481 37.5843 76.032 37.4133L75.957 37.3843L75.887 37.4223C75.33 37.7173 74.626 38.0783 73.881 38.4613C72.559 39.1393 71.061 39.9083 70.022 40.4973C69.682 40.7283 69.439 40.8433 69.192 40.9403C68.817 41.0533 68.565 41.1843 68.322 41.3103C68.117 41.4163 67.905 41.5263 67.604 41.6353C66.987 41.8853 66.23 42.0853 65.55 42.2523C65.181 41.5263 65.122 40.5033 65.373 39.2093L65.387 39.1353L65.544 38.5603C65.59 38.3653 65.658 38.1683 65.721 37.9933C65.968 37.1993 66.354 36.3653 66.694 35.6353C67.473 34.0703 68.405 32.4883 69.465 30.9333C69.577 30.7733 69.705 30.6063 69.867 30.4093C70.637 29.6933 71.661 28.7693 72.747 27.9503L72.824 27.9003C72.902 27.8503 72.98 27.8003 73.059 27.7533C74.21 27.0473 75.361 26.5103 76.474 25.9913C76.724 25.8753 76.971 25.7603 77.202 25.6503C77.289 25.6153 77.403 25.5643 77.534 25.5063C77.787 25.3953 78.1 25.2563 78.396 25.1503C78.499 25.1303 78.58 25.1133 78.647 25.0983C78.765 25.0743 78.838 25.0583 78.921 25.0493C78.588 25.6813 78.269 26.3333 78.238 27.0143C78.233 27.1083 78.132 27.2353 78.035 27.3583C77.875 27.5613 77.678 27.8083 77.763 28.1003L77.761 28.1073C77.738 28.1573 77.716 28.2073 77.697 28.2563C77.561 28.6203 77.502 28.9203 77.524 29.1633C77.544 29.2703 77.591 29.3483 77.664 29.3933L77.694 29.4113L77.707 29.4143L77.715 29.4213L77.758 29.4563C77.832 29.5183 77.972 29.5693 78.211 29.6443C78.235 29.6523 78.253 29.6573 78.249 29.6553L78.321 29.6913C78.493 29.7783 78.684 29.8723 78.802 29.9113C78.916 29.9783 79.019 30.0533 79.122 30.1433C79.142 30.1593 79.16 30.1763 79.179 30.1943C79.216 30.2313 79.259 30.2723 79.318 30.3123L79.344 30.3303L79.375 30.3373C79.478 30.3613 79.569 30.3613 79.655 30.3613C79.745 30.3633 79.822 30.3773 79.905 30.3953C80.052 30.4273 80.215 30.4633 80.405 30.3763C80.491 30.4443 80.605 30.5743 80.64 30.6313C80.676 30.8113 80.798 30.9623 81 31.0783C81.144 31.1663 81.318 31.2283 81.488 31.2883L81.644 31.3443C81.726 31.4443 81.812 31.5273 81.899 31.5943C82.053 31.7113 82.134 31.7183 82.299 31.6693C82.334 31.6853 82.395 31.7393 82.423 31.7713C82.468 31.8913 82.623 31.9413 82.903 32.0313C82.975 32.0543 83.073 32.0863 83.133 32.1103C83.143 32.1523 83.162 32.1903 83.188 32.2223C83.188 32.2243 83.19 32.2253 83.191 32.2263L83.187 32.2413L83.227 32.2613C83.252 32.2813 83.284 32.2983 83.324 32.3093C83.436 32.3603 83.507 32.3333 83.838 31.9153C84.097 31.5393 84.137 31.4293 84.176 31.3233C84.196 31.2693 84.213 31.2233 84.274 31.1203C84.433 30.8423 84.587 30.5603 84.746 30.2593C85.023 29.7313 85.293 29.1823 85.569 28.5833C86.028 27.5893 86.477 26.5183 86.982 25.2133M55.487 26.2083C55.432 26.1963 55.379 26.1843 55.332 26.1683C55.315 26.1483 55.294 26.1313 55.271 26.1183C55.138 26.0413 54.959 26.0903 54.679 26.1753C54.601 26.1993 54.49 26.2333 54.424 26.2453L54.368 26.2233C54.179 26.1493 53.991 26.0713 53.803 25.9933C52.863 25.6053 51.899 25.2063 51.027 25.3833C50.997 25.3433 50.965 25.3093 50.931 25.2823C50.684 25.1053 50.344 24.9423 49.896 25.2543C49.869 25.2673 49.831 25.2823 49.788 25.2993C49.663 25.3513 49.542 25.4033 49.435 25.4603C49.412 25.2873 49.354 25.1463 49.223 25.0803C49.017 24.9763 48.788 25.1473 48.702 25.2143C48.488 25.3333 47.442 25.2643 47.164 25.1413L47.018 25.0763L46.94 25.2153C45.195 28.2973 42.17 34.2813 41.205 37.3553C39.797 40.0853 39.785 40.1293 39.156 42.2433L39.013 42.7263C38.938 42.9773 38.743 43.2633 38.538 43.5653C38.245 43.9953 37.942 44.4413 37.924 44.8853C37.865 45.0023 37.787 45.1473 37.698 45.3123C36.949 46.6993 36.325 47.9803 36.893 48.4053C37.404 48.7893 38.317 49.1603 38.929 49.1873C39.169 49.4383 39.615 49.5233 40.101 49.5853C40.26 49.7453 40.636 49.7713 41.191 49.7903C41.375 49.7963 41.628 49.8043 41.676 49.8213C41.809 49.9083 41.998 49.8253 42.058 49.7383C42.089 49.7053 42.238 49.6203 42.347 49.5573C42.513 49.4613 42.657 49.3753 42.773 49.2923C42.889 50.1193 43.116 50.2843 43.287 50.3313C43.321 50.3413 43.354 50.3453 43.387 50.3453C43.671 50.3453 43.9 50.0223 43.988 49.8973C46.309 45.8863 47.228 44.0603 49.242 40.0613L49.42 39.7083C49.876 38.8043 50.33 37.9003 50.783 36.9963C52.451 33.6723 54.175 30.2353 55.946 26.9563L55.962 26.9143C56.01 26.7153 55.998 26.5623 55.924 26.4443C55.823 26.2833 55.644 26.2433 55.487 26.2083ZM119.835 18.6523L119.815 18.4923L119.185 18.5193C119.182 18.3833 119.205 18.1513 119.297 17.7543C119.326 17.6023 119.327 17.5103 119.329 17.4123C119.331 17.3083 119.333 17.1903 119.367 16.9583C119.428 16.6043 119.4 16.3983 119.274 16.2653C119.104 16.0883 118.842 16.1213 118.479 16.1663C118.407 16.1763 118.331 16.1853 118.249 16.1943C118.106 16.1793 117.944 16.1943 117.772 16.2093C117.502 16.2333 117.194 16.2613 116.974 16.1593C116.926 16.1263 116.926 16.1173 116.949 15.9743C116.959 15.9073 116.972 15.8243 116.975 15.7243L116.98 15.5363L116.792 15.5453C115.707 15.5933 114.587 15.7073 113.402 15.8273C111.765 15.9943 110.073 16.1673 108.38 16.1673H108.25C107.703 16.1633 106.694 16.1873 105.623 16.2143C104.222 16.2483 102.633 16.2873 101.939 16.2653L101.896 16.2633C101.424 16.2383 101.155 16.2133 101.002 16.1933C101.032 15.9833 101.002 15.8153 100.913 15.6813C100.739 15.4193 100.389 15.3733 100.079 15.3313C100.031 15.3253 99.982 15.3193 99.935 15.3113C99.783 15.1953 99.487 15.1543 99.098 15.1213C99.028 14.8463 98.923 14.6763 98.77 14.5783C98.56 14.4433 98.298 14.4673 97.967 14.5433L97.885 14.5623L97.848 14.6383C97.412 15.5563 96.952 16.5493 96.443 17.6743C95.645 18.1443 95.05 18.8883 94.957 19.5403C94.918 19.8163 94.967 20.0673 95.101 20.2753C94.738 20.5843 94.701 21.1273 94.718 21.5953C93.79 23.7613 92.802 26.1453 91.616 29.0853C91.371 29.1253 91.177 29.2223 91.029 29.3753C90.885 29.3853 90.728 29.3853 90.575 29.3833C90.085 29.3803 89.578 29.3753 89.405 29.7483C88.723 31.2103 88.569 31.5413 89.819 32.2343L89.823 32.3743C89.826 32.4573 89.699 32.6443 89.615 32.7673L89.533 32.8893C88.76 32.9993 88.812 33.6373 88.847 34.0653C88.864 34.2713 88.881 34.4833 88.829 34.6293L88.739 34.8773L88.909 34.8673L88.925 35.1293L89.145 34.9253L89.147 34.9273C88.733 35.3503 88.554 35.6893 88.613 35.9373C88.63 36.0113 88.673 36.1023 88.776 36.1733C87.887 38.3863 86.838 40.9813 85.731 43.6003L85.706 43.6083C85.564 43.6533 85.418 43.6993 85.274 43.7553L85.211 43.7783L85.181 43.8383C85.046 44.0973 84.818 45.6093 84.926 46.0983V46.1003C84.776 46.4923 84.826 47.0203 84.849 47.2733L84.855 47.3443C84.87 47.5003 84.913 47.6633 84.955 47.8203L84.993 47.9663C84.94 48.1733 84.926 48.3773 84.956 48.5443L85.025 48.9093L85.141 48.7723C84.927 49.0773 84.736 49.4603 84.857 49.7453C84.907 49.8643 85.032 50.0103 85.339 50.0293L85.354 50.0303L85.634 49.9993C85.707 49.9893 85.782 49.9793 85.886 49.9743L86.5 49.9243C86.653 49.9073 86.822 49.8973 87.001 49.8873L87.795 49.8343L90.583 49.6843C91.546 49.6323 93.09 49.5543 94.638 49.4743C96.2 49.3953 97.766 49.3163 98.742 49.2643C99.654 49.2113 100.701 49.1843 101.809 49.1543C103.046 49.1223 104.325 49.0883 105.394 49.0163L105.699 48.9953C107.561 48.8663 109.486 48.7333 111.483 48.5413L111.528 48.5313C112.018 48.3463 111.951 48.0153 111.907 47.7963C111.896 47.7423 111.885 47.6903 111.881 47.6423C111.969 47.4623 111.779 47.2523 111.635 47.0953C111.594 47.0503 111.531 46.9813 111.498 46.9353C111.797 46.4873 111.706 46.2193 111.558 45.7853C111.478 45.5473 111.377 45.2503 111.296 44.8113L111.267 44.6593L111.113 44.6683C111.032 44.6723 110.962 44.6883 110.903 44.7083C110.823 44.4683 110.709 44.0873 110.743 43.9313C110.778 43.7413 110.859 43.2983 110.424 43.0473C110.126 42.8103 109.524 42.8703 108.829 42.9403L108.654 42.9573C108.514 42.6753 108.273 42.4483 107.923 42.2673C107.889 42.2253 107.952 41.9773 107.976 41.8833C108.009 41.7573 108.042 41.6263 108.048 41.5073L108.058 41.3183L107.868 41.3233C106.493 41.3593 104.946 41.5103 103.45 41.6563C102.057 41.7923 100.616 41.9323 99.28 41.9853C98.773 42.0053 98.149 42.0543 97.487 42.1053C96.956 42.1473 96.362 42.1943 95.757 42.2313C96.304 40.8833 96.921 39.1913 97.468 37.6883C97.701 37.0493 97.918 36.4533 98.108 35.9463C99.534 35.8533 100.842 35.7563 102.102 35.6533C102.959 35.5833 103.902 35.5333 104.814 35.4863C105.871 35.4313 106.964 35.3753 107.959 35.2833C108.904 35.1963 109.477 35.1243 110.032 35.0553C110.579 34.9873 111.144 34.9173 112.068 34.8313L112.117 34.8203C112.324 34.7373 112.523 34.4893 112.723 34.0603C112.899 33.9283 113.045 33.8013 113.142 33.7143L113.153 33.7163L113.215 33.6463L113.455 33.4223L113.412 33.4133L113.572 33.2153L113.611 33.1663L113.609 33.1033C113.602 32.6963 113.679 32.3943 113.74 32.1513C113.851 31.7133 113.94 31.3653 113.398 30.9583C113.378 30.8413 113.381 30.6023 113.476 30.1113C113.488 30.0393 113.544 29.9483 113.599 29.8613C113.687 29.7213 113.777 29.5763 113.736 29.4163C113.714 29.3303 113.658 29.2603 113.57 29.2073C113.27 28.9773 112.357 29.0543 111.107 29.1873L111.007 29.1983C111.049 29.1033 111.126 28.9863 111.188 28.8903C111.297 28.7233 111.409 28.5513 111.454 28.3783L111.484 28.2613L111.385 28.1913C111.187 28.0513 110.552 28.0573 109.251 28.1013C109.083 28.1073 108.917 28.1133 108.757 28.1173C107.865 28.1553 107.051 28.3123 106.264 28.3253C104.857 28.3473 103.528 28.3933 102.043 28.5553L102.017 28.5603C101.628 28.6633 101.152 28.5653 100.533 28.6123C100.773 28.0603 101.031 27.4993 101.283 26.9543C101.733 25.9773 102.2 24.9673 102.563 23.9843C103.721 23.8853 104.757 23.7803 105.76 23.6783C106.651 23.5883 107.493 23.5033 108.337 23.4303C109.976 23.2903 111.431 23.1583 112.839 23.0313C114.791 22.8553 116.635 22.6883 118.839 22.5093L118.889 22.4993C119.169 22.3893 119.242 22.1663 119.353 21.8273C119.398 21.6923 119.448 21.5393 119.522 21.3543C120.063 20.5463 119.86 18.8443 119.835 18.6523ZM59.232 17.8533C59.357 17.6933 59.481 17.5283 59.604 17.3633L59.659 17.4913C60.032 18.3573 60.753 18.9313 61.46 19.4923C61.878 19.7803 62.2 20.1823 62.511 20.5723C62.937 21.1063 63.377 21.6583 64.054 21.8803L64.149 21.9103L64.225 21.8453C64.478 21.6253 64.81 21.4553 65.131 21.2913C65.727 20.9863 66.343 20.6713 66.554 20.0063C66.753 19.8633 66.991 19.6933 67.15 19.5463C67.487 19.6163 67.857 19.3013 68.14 19.0563C68.258 18.9923 68.422 18.8493 68.621 18.6703L68.716 18.5863C69.198 18.5393 69.477 18.4243 69.593 18.2263C69.643 18.1433 69.683 18.0033 69.598 17.8183L69.58 17.7873C68.216 15.9293 66.56 14.2673 65.09 12.8453C65.444 12.6453 65.793 12.4413 66.13 12.2393C66.838 11.8143 67.575 11.3513 68.45 10.7813C68.577 10.6973 68.78 10.5653 69.007 10.4183L69.391 10.2383C69.897 9.99826 70.472 9.72526 70.805 9.61626L70.837 9.60226C71.02 9.49926 71.133 9.28726 71.167 8.98726L71.634 8.65526L71.653 8.62526C71.807 8.37426 71.658 8.18226 71.607 8.11926C71.553 8.04926 71.454 7.99326 71.283 7.89926C71.213 7.86126 71.1 7.79926 71.053 7.76526C70.867 7.12726 70.359 6.34526 69.617 5.98426C69.537 5.92226 69.43 5.91726 69.325 5.91126C69.296 5.91026 69.252 5.90726 69.225 5.90326C69.175 5.82726 69.125 5.74726 69.079 5.67026L69.041 5.60626L68.995 5.52826L68.872 5.31326C68.753 5.11026 68.155 4.10926 67.865 3.94726C67.509 3.71026 67 4.02426 66.661 4.23526C66.587 4.23526 66.541 4.27526 66.522 4.29726C66.514 4.30626 66.507 4.31726 66.5 4.32726C65.526 4.86726 64.326 5.57026 63.483 6.31526C63.373 6.34226 63.284 6.35926 63.201 6.37026C62.789 6.43526 62.403 6.58226 61.971 6.84026L61.885 6.53426C61.603 5.54226 61.33 4.57126 61.086 3.59926C61.086 3.42526 61.078 2.37126 60.814 2.04326C60.8 1.86526 60.755 1.60026 60.708 1.32326C60.644 0.943262 60.571 0.512262 60.581 0.318262L60.589 0.167262L60.44 0.137262C60.334 0.116262 60.075 0.127262 59.662 0.148262C59.45 0.158262 59.161 0.173262 59.092 0.164262C58.598 0.118262 57.366 0.091262 56.582 0.809262L56.512 0.873262L56.557 1.14126C56.33 1.20626 56.078 1.23526 55.867 1.26026C54.197 1.48426 53.968 1.66126 53.897 1.73826C53.584 2.00026 53.756 2.41026 53.894 2.73926C53.977 2.93726 54.062 3.14126 54.048 3.28626C53.992 3.51426 54.04 3.73226 54.081 3.92426C54.103 4.02326 54.123 4.11626 54.129 4.21426C54.236 5.03626 54.477 6.05826 54.845 7.25726C54.627 7.16726 54.394 7.07426 54.142 6.97726C53.769 6.83326 53.205 6.62726 52.636 6.46026C52.438 6.40026 52.212 6.32926 51.975 6.25326C51.579 6.04726 50.649 5.56126 50.262 5.31426L50.225 5.29726C50.032 5.22926 49.803 5.28626 49.525 5.46926C49.382 5.42726 49.247 5.38926 49.128 5.35826L49.087 5.34726L49.045 5.35726C48.785 5.41526 48.637 5.80126 48.457 6.34026C48.423 6.44126 48.391 6.53826 48.365 6.60226C48.071 7.00526 47.605 7.77526 47.683 8.52826L47.695 8.63926L47.905 8.71126C47.826 8.90126 47.716 9.09326 47.615 9.26726L47.566 9.35726L47.563 9.35626L47.486 9.49526C47.363 9.71526 47.238 9.97326 47.232 10.2053C47.198 10.2703 47.102 10.4353 47.029 10.5603C46.751 11.0373 46.734 11.0683 46.746 11.1363C46.776 11.6263 47.711 11.8683 47.929 11.9173C48.157 11.9993 48.504 12.1443 48.871 12.2973C49.374 12.5073 49.896 12.7233 50.186 12.8103C50.541 12.9153 50.873 12.9953 51.199 13.0553C51.262 13.1133 51.321 13.1693 51.373 13.2273C51.864 13.7643 52.569 14.0213 53.233 14.2233C53.001 14.4763 52.813 14.7543 52.643 15.0233C52.422 15.2713 52.22 15.5543 52.01 15.9133C51.905 16.0233 51.794 16.1303 51.685 16.2353C51.246 16.6573 50.793 17.0933 50.709 17.7173C50.706 17.7623 50.706 17.8073 50.711 17.8553C50.624 17.9503 50.523 18.0533 50.416 18.1613C49.991 18.5913 49.51 19.0793 49.465 19.5303L49.455 19.6223L49.527 19.6823C50.09 20.1523 50.444 20.4343 51.084 20.7193C51.476 21.0743 52.062 21.3513 52.143 21.3703C52.513 21.5013 52.739 21.5353 52.911 21.5053C53.039 21.8203 53.525 22.1253 54 22.4223C54.25 22.5793 54.485 22.7273 54.61 22.8423L54.745 22.9683L54.864 22.8263C55.004 22.6583 55.094 22.5643 55.218 22.4333C55.35 22.2943 55.514 22.1213 55.812 21.7823L56.082 21.4363C56.142 21.3593 56.2 21.2813 56.257 21.2043L56.335 21.0993C57.288 20.1923 58.263 19.1003 59.232 17.8533Z" fill="#122315"/>
</g>
<defs>
<clipPath id="clip0_111_4115">
<rect width="120" height="52" fill="white"/>
</clipPath>
</defs>
</svg>
